<svg xmlns="http://www.w3.org/2000/svg" viewBox="8 11 33 28"><path fill="#333" d="M11.828 18.18s-3.344 3.498-2.763 9.19c.58 5.695 4.186 10.393 16.208 10.393 12.02 0 15.045-6.275 15.116-11.436.07-5.16-2.254-7.46-3.345-8.243 0 0 .007-3.704-.343-5.66 0 0-1.85-.22-5.845 2.07 0 0-5.454-.534-12.722.064 0 0-3.053-2.04-6.13-2.574 0 0-.51 3.212-.177 6.195z"/><path fill="#E2B89F" d="M17.21 23.815h14.917s4.227-.475 4.227 6.44c.034 6.086-11.14 5.693-11.14 5.693s-12.235.486-12.242-6.27c-.016-6.1 4.24-5.863 4.24-5.863z"/><path fill="#9C584F" d="M30.767 26.59c.96 0 1.737 1.25 1.737 2.788 0 1.54-.778 2.788-1.737 2.788-.958 0-1.736-1.248-1.736-2.788 0-1.537.78-2.787 1.737-2.787z"/><path fill="#FFF" d="M30.767 32.666c-1.254 0-2.236-1.444-2.236-3.288 0-1.843.983-3.287 2.237-3.287 1.255 0 2.237 1.445 2.237 3.288 0 1.844-.983 3.288-2.237 3.288zm0-5.575c-.585 0-1.236.94-1.236 2.288 0 1.35.652 2.288 1.237 2.288s1.237-.94 1.237-2.288c0-1.348-.652-2.287-1.237-2.287z"/><path fill="#9C584F" d="M18.767 26.59c.96 0 1.737 1.25 1.737 2.788 0 1.54-.778 2.788-1.737 2.788-.958 0-1.736-1.248-1.736-2.788 0-1.537.78-2.787 1.737-2.787z"/><path fill="#FFF" d="M18.767 32.666c-1.254 0-2.236-1.444-2.236-3.288 0-1.843.983-3.287 2.237-3.287s2.237 1.445 2.237 3.288c0 1.844-.983 3.288-2.237 3.288zm0-5.575c-.585 0-1.236.94-1.236 2.288 0 1.35.652 2.288 1.237 2.288.585 0 1.237-.94 1.237-2.288 0-1.348-.652-2.287-1.237-2.287z"/><path fill="#9C584F" d="M24.076 32.705s.5-1.418 1.11-.09c0 0-.458.298-.286.997l1.428.546h-3.23l1.28-.575s.184-1.056-.302-.878z"/></svg>