<svg xmlns="http://www.w3.org/2000/svg" viewBox="456 256 48 48"><linearGradient id="a" gradientUnits="userSpaceOnUse" x1="351.366" y1="312.875" x2="351.366" y2="301.375" gradientTransform="matrix(4.1667 0 0 -4.1667 -983.994 1559.654)"><stop offset="0" stop-color="#EBE9D6"/><stop offset="1" stop-color="#E1DCB7"/></linearGradient><path fill="url(#a)" d="M504 297.928c0 3.307-2.683 5.99-5.99 5.99h-35.937c-3.308 0-5.99-2.684-5.99-5.99V261.99c0-3.307 2.682-5.99 5.99-5.99h35.938c3.308 0 5.99 2.683 5.99 5.99v35.938z"/><path fill-rule="evenodd" clip-rule="evenodd" fill="#D3CCA7" d="M486.288 265.06l.142-2.417h3.518c.033.206.087.378.087.55-.007 7.088.028 14.177-.057 21.266-.027 2.265-.233 4.567-1.615 6.526-1.48 2.102-3.577 3.21-6.07 3.607-2.81.448-5.572.355-8.175-.937-2.52-1.25-3.787-3.57-3.423-6.29 1.074.162 2.152.307 3.222.5.205.037.5.238.542.413.625 2.69 2.728 3.11 4.986 3.237 3.187.18 5.497-1.193 6.154-3.85.368-1.492.352-3.08.507-4.573-1.53.786-2.832 1.745-4.288 2.152-4.125 1.15-8.19-.563-10.23-4.324-2.662-4.905-2.535-9.917.29-14.684 2.855-4.813 9.685-5.61 13.754-1.793.155.15.313.295.654.615zm-12.52 8.238c.177 1.568.223 2.712.448 3.82.565 2.793 2.577 4.78 4.995 5.057 2.67.304 5.06-.85 6.088-3.21 1.443-3.31 1.502-6.75.04-10.05-1.027-2.318-2.943-3.623-5.61-3.49-2.525.128-4.204 1.54-5.06 3.787-.536 1.41-.668 2.973-.9 4.086z"/><path fill-rule="evenodd" clip-rule="evenodd" fill="#532D0B" d="M486.288 267.06l.142-2.417h3.518c.033.206.087.378.087.55-.007 7.088.028 14.177-.057 21.266-.027 2.265-.233 4.567-1.615 6.526-1.48 2.102-3.577 3.21-6.07 3.607-2.81.448-5.572.355-8.175-.937-2.52-1.25-3.787-3.57-3.423-6.29 1.074.162 2.152.307 3.222.5.205.037.5.238.542.413.625 2.69 2.728 3.11 4.986 3.237 3.187.18 5.497-1.193 6.154-3.85.368-1.492.352-3.08.507-4.573-1.53.786-2.832 1.745-4.288 2.152-4.125 1.15-8.19-.563-10.23-4.324-2.662-4.905-2.535-9.917.29-14.684 2.855-4.813 9.685-5.61 13.754-1.793.155.15.313.295.654.615zm-12.52 8.238c.177 1.568.223 2.712.448 3.82.565 2.793 2.577 4.78 4.995 5.057 2.67.304 5.06-.85 6.088-3.21 1.443-3.31 1.502-6.75.04-10.05-1.027-2.318-2.943-3.623-5.61-3.49-2.525.128-4.204 1.54-5.06 3.787-.536 1.41-.668 2.973-.9 4.086z"/></svg>